# xmcd CD database file
#
# Track frame offsets:
#	150
#	9405
#	18408
#	25918
#	35135
#	41235
#	52113
#	58548
#	70018
#	76190
#	82025
#	92403
#	99608
#	108520
#	117017
#	130040
#	140240
#	148627
#	158129
#	166289
#	174803
#	185837
#	195315
#	204303
#	215091
#	223636
#	232286
#	243021
#	253377
#	262410
#	270605
#	278667
#	290155
#	296852
#	305220
#	313405
#	320852
#	332645
#
# Disc length: 4621 seconds
#
# Revision: 6
# Processed by: cddbd v1.5.1PL2 Copyright (c) Steve Scherf et al.
# Submitted via: CDex 1.51
#
DISCID=57120b26
DTITLE=Gilberto, João - The Legendary João Gilberto
DYEAR=1990
DGENRE=Jazz
TTITLE0=Chega De Saudade
TTITLE1=Desafinado
TTITLE2=Samba De Uma Nota Só
TTITLE3=O Pato
TTITLE4=Bolinha De Papel
TTITLE5=O Amor Em Paz
TTITLE6=Trêvo De 4 Folhas
TTITLE7=O Barquinho
TTITLE8=Lobo Bobo
TTITLE9=Bim Bom
TTITLE10=Hó-Bá-Lá-Lá
TTITLE11=A Los Pés Da Cruz
TTITLE12=É Luxo Só
TTITLE13=Outra Vez
TTITLE14=Coisa Mais Linda
TTITLE15=Este Seu Olhar
TTITLE16=Trenzinho
TTITLE17=Brigas, Nunca Mais
TTITLE18=Saudade Fez Um Samba
TTITLE19=Amor Certinho
TTITLE20=Insenatez
TTITLE21=Rosa Morena
TTITLE22=Morena Boca De Ouro
TTITLE23=Maria Ninguém
TTITLE24=A Primeira Vez
TTITLE25=Presente De Natal
TTITLE26=Samba Da Minha Terra
TTITLE27=Saudade Da Bahia
TTITLE28=Corcovado
TTITLE29=Só Em Teus Braços
TTITLE30=Meditacão
TTITLE31=Você Eu
TTITLE32=Doralice
TTITLE33=Discussâo
TTITLE34=Se é Tarde Me Perdoa
TTITLE35=Um Abraço No Bonfá
TTITLE36=Manha De Carnaval
TTITLE37=O Nossa Amor - A Felicidade
EXTD=YEAR: 1990
EXTT0=
EXTT1=
EXTT2=
EXTT3=
EXTT4=
EXTT5=
EXTT6=
EXTT7=
EXTT8=
EXTT9=
EXTT10=
EXTT11=
EXTT12=
EXTT13=
EXTT14=
EXTT15=
EXTT16=
EXTT17=
EXTT18=
EXTT19=
EXTT20=
EXTT21=
EXTT22=
EXTT23=
EXTT24=
EXTT25=
EXTT26=
EXTT27=
EXTT28=
EXTT29=
EXTT30=
EXTT31=
EXTT32=
EXTT33=
EXTT34=
EXTT35=
EXTT36=
EXTT37=
PLAYORDER=
